HIERARCHY
ROOT Hips
{
	OFFSET 0.000000 0.000000 0.000000
	CHANNELS 6 Xposition Yposition Zposition Xrotation Yrotation Zrotation
	JOINT LeftUpLeg_virtual
	{
		OFFSET 0.000000 0.000000 0.000000
		CHANNELS 3 Xrotation Yrotation Zrotation
		JOINT LeftUpLeg
		{
			OFFSET 10.205400 -3.823500 0.155100
			CHANNELS 3 Xrotation Yrotation Zrotation
			JOINT LeftLeg
			{
				OFFSET 0.708757 -12.982077 0.567790
				CHANNELS 3 Xrotation Yrotation Zrotation
				JOINT LeftFoot
				{
					OFFSET -0.708756 -10.717838 -2.184338
					CHANNELS 3 Xrotation Yrotation Zrotation
					JOINT LeftToeBase
					{
						OFFSET 0.108149 -7.191104 7.560241
						CHANNELS 3 Xrotation Yrotation Zrotation
						JOINT LeftToe_End
						{
							OFFSET 0.070230 0.081724 4.490308
							CHANNELS 3 Xrotation Yrotation Zrotation
							End Site
							{
								OFFSET 0 0 0
							}
						}
					}
				}
			}
		}
	}
	JOINT RightUpLeg_virtual
	{
		OFFSET 0.000000 0.000000 0.000000
		CHANNELS 3 Xrotation Yrotation Zrotation
		JOINT RightUpLeg
		{
			OFFSET -10.205400 -3.823500 0.005500
			CHANNELS 3 Xrotation Yrotation Zrotation
			JOINT RightLeg
			{
				OFFSET -0.708756 -12.982134 0.610632
				CHANNELS 3 Xrotation Yrotation Zrotation
				JOINT RightFoot
				{
					OFFSET 0.708754 -10.717769 -1.945823
					CHANNELS 3 Xrotation Yrotation Zrotation
					JOINT RightToeBase
					{
						OFFSET -0.108140 -7.191069 7.372968
						CHANNELS 3 Xrotation Yrotation Zrotation
						JOINT RightToe_End
						{
							OFFSET -0.070227 0.081735 4.479403
							CHANNELS 3 Xrotation Yrotation Zrotation
							End Site
							{
								OFFSET 0 0 0
							}
						}
					}
				}
			}
		}
	}
	JOINT Spine_virtual
	{
		OFFSET 0.000000 0.000000 0.000000
		CHANNELS 3 Xrotation Yrotation Zrotation
		JOINT Spine
		{
			OFFSET 0.000000 6.876099 0.125700
			CHANNELS 3 Xrotation Yrotation Zrotation
			JOINT Spine1
			{
				OFFSET 0.000000 5.730043 0.104720
				CHANNELS 3 Xrotation Yrotation Zrotation
				JOINT Spine1_split
				{
					OFFSET 0.000000 5.730043 0.104720
					CHANNELS 3 Xrotation Yrotation Zrotation
					JOINT Spine2
					{
						OFFSET 0.000000 5.730043 0.104720
						CHANNELS 3 Xrotation Yrotation Zrotation
						JOINT Neck_virtual
						{
							OFFSET 0.000000 0.000000 0.000000
							CHANNELS 3 Xrotation Yrotation Zrotation
							JOINT Neck
							{
								OFFSET 0.000000 10.314075 0.188496
								CHANNELS 3 Xrotation Yrotation Zrotation
								JOINT Head
								{
									OFFSET 0.000000 7.643700 -2.377400
									CHANNELS 3 Xrotation Yrotation Zrotation
									JOINT HeadTop_End
									{
										OFFSET 0.000000 43.788605 -13.619600
										CHANNELS 3 Xrotation Yrotation Zrotation
										End Site
										{
											OFFSET 0 0 0
										}
									}
								}
							}
						}
						JOINT LeftShoulder_virtual
						{
							OFFSET 0.000000 0.000000 0.000000
							CHANNELS 3 Xrotation Yrotation Zrotation
							JOINT LeftShoulder
							{
								OFFSET 2.196100 4.412489 0.087492
								CHANNELS 3 Xrotation Yrotation Zrotation
								JOINT LeftShoulder_split
								{
									OFFSET 2.196100 4.412489 0.087492
									CHANNELS 3 Xrotation Yrotation Zrotation
									JOINT LeftArm
									{
										OFFSET 8.771219 -2.981674 -0.026999
										CHANNELS 3 Xrotation Yrotation Zrotation
										JOINT LeftForeArm
										{
											OFFSET 8.512804 0.000000 -0.000000
											CHANNELS 3 Xrotation Yrotation Zrotation
											JOINT LeftHand
											{
												OFFSET 18.484802 0.000000 -0.000000
												CHANNELS 3 Xrotation Yrotation Zrotation
												End Site
												{
													OFFSET 0 0 0
												}
											}
										}
									}
								}
							}
						}
						JOINT RightShoulder_virtual
						{
							OFFSET 0.000000 0.000000 0.000000
							CHANNELS 3 Xrotation Yrotation Zrotation
							JOINT RightShoulder
							{
								OFFSET -2.196100 4.412496 0.070690
								CHANNELS 3 Xrotation Yrotation Zrotation
								JOINT RightShoulder_split
								{
									OFFSET -2.196100 4.412496 0.070690
									CHANNELS 3 Xrotation Yrotation Zrotation
									JOINT RightArm
									{
										OFFSET -8.771282 -2.981682 -0.094208
										CHANNELS 3 Xrotation Yrotation Zrotation
										JOINT RightForeArm
										{
											OFFSET -8.494598 0.000000 0.000000
											CHANNELS 3 Xrotation Yrotation Zrotation
											JOINT RightHand
											{
												OFFSET -18.483803 0.000000 0.000001
												CHANNELS 3 Xrotation Yrotation Zrotation
												End Site
												{
													OFFSET 0 0 0
												}
											}
										}
									}
								}
							}
						}
					}
				}
			}
		}
	}
}
MOTION
Frames: 4
Frame Time: 0.03333333
0.173925 31.469486 3.484001 0.000000 0.000000 0.000000 -12.954301 -1.220467 -4.909976 -36.500582 19.044825 12.407432 50.599103 -7.900675 11.319994 -4.572139 -8.084495 -1.566283 -1.018572 0.000004 0.000004 0.000000 0.000000 0.000000 -12.954301 -1.220467 -4.909976 -21.072148 -36.030170 -2.702972 41.126109 9.293476 -10.591427 -7.351181 7.673163 -4.086194 -0.000064 0.000001 0.000001 0.000000 0.000000 0.000000 -12.954301 -1.220467 -4.909976 5.922134 -0.704670 2.545820 9.106088 -0.324704 -0.848843 0.000000 0.000000 0.000000 0.000000 0.000000 0.000000 9.111606 -0.022998 -0.851798 15.434441 0.560289 0.855191 -3.243830 0.523977 4.960276 0.000000 0.000000 0.000000 9.111606 -0.022998 -0.851798 0.689296 3.725265 -11.385411 0.000000 0.000000 0.000000 59.736937 -63.314713 -9.099190 -0.000002 -20.467432 0.000000 0.000000 0.000000 0.000000 9.111606 -0.022998 -0.851798 1.381296 0.020055 11.778461 0.000000 0.000000 0.000000 9.839226 40.445337 56.843256 0.000011 26.830950 -0.000016 0.000000 0.000000 0.000000 
0.171053 31.472977 3.488344 0.000000 0.000000 0.000000 -12.925110 -1.141731 -4.909125 -36.527872 19.012774 12.371885 50.570755 -7.899763 11.320163 -4.532922 -8.103255 -1.545426 -1.031772 0.000006 -0.000001 0.000000 0.000000 0.000000 -12.925110 -1.141731 -4.909125 -21.041702 -36.097017 -2.714685 41.097136 9.299657 -10.588879 -7.386007 7.656913 -4.073071 -0.000063 0.000003 0.000000 0.000000 0.000000 0.000000 -12.925110 -1.141731 -4.909125 5.914993 -0.705781 2.552511 9.098277 -0.328489 -0.866142 0.000000 0.000000 0.000000 0.000000 0.000000 0.000000 9.103880 -0.028799 -0.868352 15.411975 0.550057 0.886042 -3.321174 0.521828 4.868123 0.000000 0.000000 0.000000 9.103880 -0.028799 -0.868352 0.689448 3.729467 -11.390606 0.000000 0.000000 0.000000 59.511349 -63.261970 -9.286489 0.000004 -20.488093 0.000036 0.000000 0.000000 0.000000 9.103880 -0.028799 -0.868352 1.379344 0.009011 11.778178 0.000000 0.000000 0.000000 9.848074 40.481165 56.846684 0.000015 26.857861 -0.000024 0.000000 0.000000 0.000000 
0.168106 31.476177 3.492815 0.000000 0.000000 0.000000 -12.899785 -1.071617 -4.910047 -36.551901 18.984325 12.343772 50.547805 -7.898256 11.320285 -4.501227 -8.121770 -1.525386 -1.044768 0.000003 0.000004 0.000000 0.000000 0.000000 -12.899785 -1.071617 -4.910047 -21.008960 -36.164786 -2.723761 41.069016 9.305451 -10.586209 -7.418908 7.646392 -4.063735 -0.000065 0.000000 0.000000 0.000000 0.000000 0.000000 -12.899785 -1.071617 -4.910047 5.909547 -0.707964 2.558773 9.092751 -0.334138 -0.879477 0.000000 0.000000 0.000000 0.000000 0.000000 0.000000 9.098461 -0.036119 -0.880976 15.389695 0.540276 0.916377 -3.387414 0.520193 4.780246 0.000000 0.000000 0.000000 9.098461 -0.036119 -0.880976 0.689260 3.730456 -11.388679 0.000000 0.000000 0.000000 59.216272 -63.219391 -9.543474 0.000019 -20.491778 0.000004 0.000000 0.000000 0.000000 9.098461 -0.036119 -0.880976 1.377776 0.000537 11.774940 0.000000 0.000000 0.000000 9.850689 40.518137 56.852118 0.000003 26.876197 -0.000002 0.000000 0.000000 0.000000 
0.165174 31.479111 3.497301 0.000000 0.000000 0.000000 -12.878410 -1.008086 -4.912236 -36.572412 18.958957 12.321111 50.529859 -7.896474 11.320449 -4.476028 -8.138960 -1.506128 -1.057880 0.000009 -0.000000 0.000000 0.000000 0.000000 -12.878410 -1.008086 -4.912236 -20.973849 -36.232163 -2.730692 41.041896 9.311224 -10.583475 -7.450192 7.639339 -4.057109 -0.000061 0.000003 0.000001 0.000000 0.000000 0.000000 -12.878410 -1.008086 -4.912236 5.905811 -0.711410 2.564652 9.089676 -0.341986 -0.888690 0.000000 0.000000 0.000000 0.000000 0.000000 0.000000 9.095518 -0.045238 -0.889512 15.367740 0.531761 0.945649 -3.441945 0.522780 4.698531 0.000000 0.000000 0.000000 9.095518 -0.045238 -0.889512 0.688685 3.728783 -11.379024 0.000000 0.000000 0.000000 58.849374 -63.190875 -9.874567 0.000011 -20.472932 -0.000007 0.000000 0.000000 0.000000 9.095518 -0.045238 -0.889512 1.376749 -0.004522 11.769008 0.000000 0.000000 0.000000 9.848459 40.558148 56.859074 0.000003 26.885320 -0.000010 0.000000 0.000000 0.000000 
